<svg xmlns="http://www.w3.org/2000/svg" viewBox="0 0 256 256"><mask id="A" maskUnits="userSpaceOnUse" x="0" y="0" width="256" height="256"><path fill-rule="evenodd" d="M181.534 254.252a15.934 15.934 0 0 0 12.7-.488l52.706-25.361a16.002 16.002 0 0 0 9.06-14.42V42.018c0-6.15-3.522-11.754-9.06-14.42L194.234 2.238a15.939 15.939 0 0 0-18.185 3.097l-100.9 92.052-43.95-33.361a10.655 10.655 0 0 0-13.614.605L3.49 77.453c-4.648 4.227-4.653 11.54-.011 15.774L41.593 128 3.478 162.773c-4.642 4.235-4.637 11.547.011 15.775l14.097 12.822a10.655 10.655 0 0 0 13.613.606l43.95-33.362 100.9 92.053a15.915 15.915 0 0 0 5.485 3.585zm10.505-184.367L115.479 128l76.56 58.115V69.885z" fill="#fff"/></mask><g mask="url(#A)"><path d="M246.94 27.638L194.193 2.241a15.947 15.947 0 0 0-18.194 3.092L3.324 162.773a10.67 10.67 0 0 0 .011 15.775L17.44 191.37a10.667 10.667 0 0 0 13.622.606l207.941-157.75c6.976-5.291 16.996-.316 16.996 8.44v-.612a16 16 0 0 0-9.059-14.416z" fill="#0065a9"/><path d="M246.94 228.362l-52.747 25.397a15.95 15.95 0 0 1-18.194-3.092L3.324 93.227a10.67 10.67 0 0 1 .011-15.775L17.44 64.63a10.667 10.667 0 0 1 13.622-.605l207.941 157.748c6.976 5.292 16.996.317 16.996-8.44v.613a16.001 16.001 0 0 1-9.059 14.416z" fill="#007acc" filter="url(#B)"/><path d="M194.196 253.763A15.955 15.955 0 0 1 176 250.667c5.904 5.904 16 1.722 16-6.628V11.961c0-8.35-10.096-12.532-16-6.628a15.955 15.955 0 0 1 18.196-3.097L246.934 27.6A16 16 0 0 1 256 42.017v171.965a16 16 0 0 1-9.066 14.419l-52.738 25.361z" fill="#1f9cf0" filter="url(#C)"/><path fill-rule="evenodd" d="M181.378 254.252a15.936 15.936 0 0 0 12.699-.488l52.706-25.362a16 16 0 0 0 9.061-14.419V42.018c0-6.15-3.522-11.754-9.06-14.42L194.077 2.238a15.939 15.939 0 0 0-18.185 3.096l-100.9 92.053-43.95-33.361a10.655 10.655 0 0 0-13.613.605L3.333 77.452c-4.648 4.228-4.653 11.54-.011 15.775L41.436 128 3.322 162.773c-4.642 4.235-4.637 11.547.011 15.775L17.43 191.37a10.655 10.655 0 0 0 13.614.606l43.95-33.362 100.899 92.053a15.919 15.919 0 0 0 5.486 3.585zm10.505-184.367L115.323 128l76.56 58.115V69.885z" fill="url(#D)" opacity=".25"/></g><defs><filter id="B" x="-21.49" y="40.523" width="298.822" height="236.149" filterUnits="userSpaceOnUse" color-interpolation-filters="sRGB"><feFlood flood-opacity="0" result="A"/><feColorMatrix in="SourceAlpha" values="0 0 0 0 0 0 0 0 0 0 0 0 0 0 0 0 0 0 127 0"/><feOffset/><feGaussianBlur stdDeviation="10.667"/><feColorMatrix values="0 0 0 0 0 0 0 0 0 0 0 0 0 0 0 0 0 0 0.25 0"/><feBlend mode="overlay" in2="A"/><feBlend in="SourceGraphic"/></filter><filter id="C" x="154.667" y="-20.674" width="122.667" height="297.347" filterUnits="userSpaceOnUse" color-interpolation-filters="sRGB"><feFlood flood-opacity="0" result="A"/><feColorMatrix in="SourceAlpha" values="0 0 0 0 0 0 0 0 0 0 0 0 0 0 0 0 0 0 127 0"/><feOffset/><feGaussianBlur stdDeviation="10.667"/><feColorMatrix values="0 0 0 0 0 0 0 0 0 0 0 0 0 0 0 0 0 0 0.25 0"/><feBlend mode="overlay" in2="A"/><feBlend in="SourceGraphic"/></filter><linearGradient id="D" x1="127.844" y1=".66" x2="127.844" y2="255.34" gradientUnits="userSpaceOnUse"><stop stop-color="#fff"/><stop offset="1" stop-color="#fff" stop-opacity="0"/></linearGradient></defs></svg>